<svg id="Calque_1" data-name="Calque 1" xmlns="http://www.w3.org/2000/svg" viewBox="0 0 65.92 56.88"><defs><style>.cls-1{fill:#e53138;}.cls-2{fill:none;}</style></defs><path class="cls-1" d="M420,270.68c-16.43.9-29.45,13.06-29.45,27.92A26,26,0,0,0,397.4,316h23.85c.92,0,11-.46,11-10s-9.91-10.07-11-10.09h-.09a5.06,5.06,0,0,1,0-10.11h.34c2.78.08,21.83,1.32,21.83,20.23,0,9.35-4.8,14.36-9.92,17v0C445,319,453.35,310.39,453.35,298.6a26.06,26.06,0,0,0-7.26-17.89H421.52c-.93,0-11,.46-11,10.05s9.91,10.07,11,10.09h.09a5.06,5.06,0,0,1,0,10.11h0a.22.22,0,0,1-.08,0h-.26c-2.78-.08-21.83-1.32-21.83-20.22,0-16.86,15.55-19.45,20.61-19.89Z" transform="translate(-387.43 -270.68)"/><path class="cls-1" d="M421.36,323c-.07-1.41-.16-3.12-.16-4.37h0c-.36,1.17-.77,2.45-1.28,3.84l-1.79,4.92h-1l-1.65-4.82c-.48-1.45-.87-2.74-1.16-3.94h0c0,1.26-.1,2.94-.19,4.47l-.27,4.35h-1.25l.71-10.13h1.66l1.73,4.9c.42,1.24.75,2.36,1,3.41h0c.27-1,.63-2.13,1.08-3.41l1.81-4.9h1.66l.64,10.13h-1.3Z" transform="translate(-387.43 -270.68)"/><path class="cls-1" d="M392,326.5c-2.06,0-3.23-2-3.23-4.1s1.08-4.23,3.26-4.23,3.23,2.11,3.23,4.12c0,2.3-1.17,4.21-3.24,4.21Zm0,1.06c2.57,0,4.69-1.86,4.69-5.33,0-3-1.79-5.12-4.57-5.12s-4.69,2.1-4.69,5.31,1.87,5.14,4.56,5.14Z" transform="translate(-387.43 -270.68)"/><path class="cls-1" d="M397.47,327.4V317.27h1.44l3.23,5.13a26.92,26.92,0,0,1,1.81,3.28h0c-.12-1.35-.15-2.59-.15-4.15v-4.25h1.23V327.4h-1.32l-3.21-5.14a28.08,28.08,0,0,1-1.88-3.38h-.05c.08,1.28.09,2.5.09,4.18v4.33Z" transform="translate(-387.43 -270.68)"/><path class="cls-1" d="M411.31,322.65h-3.92v3.65h4.39v1.1h-5.71V317.27h5.48v1.1h-4.16v3.2h3.92Z" transform="translate(-387.43 -270.68)"/><path class="cls-1" d="M424.07,327.39a.65.65,0,1,1,.62-.65A.63.63,0,0,1,424.07,327.39Z" transform="translate(-387.43 -270.68)"/><path class="cls-1" d="M433.14,325.31h-3.05a1.25,1.25,0,0,0,1.33,1.19,2.47,2.47,0,0,0,1.23-.33l.29.77a3,3,0,0,1-1.72.52A2.15,2.15,0,0,1,429,326a2.73,2.73,0,0,1-2.56,1.47,3.19,3.19,0,0,1-1.56-.34v-6.83h1.2v2.38a2.91,2.91,0,0,1,.92-.15,2.16,2.16,0,0,1,2.07,1.31,2,2,0,0,1,1.92-1.31,2.16,2.16,0,0,1,2.12,2.44Zm-6.36-1.78a1.62,1.62,0,0,0-.67.15v2.71a1.74,1.74,0,0,0,.59.09,1.44,1.44,0,0,0,1.38-1.56A1.31,1.31,0,0,0,426.78,323.53Zm4.21-.11a1,1,0,0,0-.93,1h1.84A1,1,0,0,0,431,323.42Z" transform="translate(-387.43 -270.68)"/><path class="cls-2" d="M385,263.69" transform="translate(-387.43 -270.68)"/><path class="cls-2" d="M455.83,263.69" transform="translate(-387.43 -270.68)"/><path class="cls-2" d="M455.83,334.56" transform="translate(-387.43 -270.68)"/><path class="cls-2" d="M385,334.56" transform="translate(-387.43 -270.68)"/></svg>